<?xml version="1.0" standalone="no"?>
<!DOCTYPE svg PUBLIC "-//W3C//DTD SVG 20010904//EN"
 "http://www.w3.org/TR/2001/REC-SVG-20010904/DTD/svg10.dtd">
<svg version="1.0" xmlns="http://www.w3.org/2000/svg"
 width="84.000000pt" height="84.000000pt" viewBox="0 0 84.000000 84.000000"
 preserveAspectRatio="xMidYMid meet">
<metadata>
Created by potrace 1.11, written by Peter Selinger 2001-2013
</metadata>
<g transform="translate(0.000000,84.000000) scale(0.100000,-0.100000)"
fill="#000000" stroke="none">
<path d="M605 806 c-58 -26 -70 -50 -70 -140 l0 -82 -75 4 c-69 3 -78 1 -118
-25 -61 -40 -86 -96 -79 -179 l5 -64 -27 7 c-45 11 -126 6 -157 -10 -50 -26
-95 -90 -76 -109 7 -7 14 -3 21 10 10 19 15 16 78 -47 81 -81 123 -111 123
-88 0 15 -142 152 -159 152 -42 0 -1 49 54 64 40 11 113 4 141 -14 35 -22 45
-114 19 -166 -9 -16 -33 -40 -55 -54 -22 -14 -40 -30 -40 -35 0 -34 103 30
126 79 13 26 15 50 11 98 l-6 63 59 1 c33 1 63 2 68 3 4 1 24 5 44 9 45 9 94
62 104 111 3 20 4 58 2 86 l-5 50 66 -4 c80 -4 120 6 150 38 26 28 35 93 12
88 -7 -2 -44 27 -81 63 -62 59 -90 77 -90 58 1 -23 137 -146 151 -137 8 4 9
-1 4 -17 -18 -62 -101 -83 -207 -53 -20 6 -38 62 -38 120 0 31 6 48 26 68 15
14 33 26 41 26 8 0 24 5 35 11 17 9 18 13 7 20 -18 12 -28 11 -64 -5z m-53
-268 c27 -44 16 -151 -20 -192 -28 -31 -77 -46 -152 -46 -83 0 -89 7 -85 101
4 113 59 160 178 154 42 -3 74 -9 79 -17z"/>
<path d="M447 527 c17 -29 93 -88 104 -82 15 10 -69 95 -94 95 -12 0 -15 -4
-10 -13z"/>
<path d="M355 520 c-7 -11 96 -115 143 -147 48 -33 32 -1 -34 68 -76 78 -99
95 -109 79z"/>
<path d="M330 447 c0 -14 107 -117 122 -117 22 0 2 31 -49 75 -64 57 -73 62
-73 42z"/>
<path d="M310 376 c0 -15 55 -66 71 -66 17 0 9 18 -23 49 -35 34 -48 39 -48
17z"/>
<path d="M600 728 c0 -15 125 -138 139 -138 25 0 7 27 -56 86 -69 65 -83 73
-83 52z"/>
<path d="M575 670 c-8 -13 81 -110 102 -110 26 0 10 24 -59 88 -25 23 -38 30
-43 22z"/>
<path d="M115 270 c-7 -11 123 -140 143 -140 22 0 13 15 -45 71 -77 73 -90 82
-98 69z"/>
<path d="M200 273 c0 -13 53 -63 67 -63 21 0 15 21 -14 46 -27 23 -53 31 -53
17z"/>
</g>
</svg>
